<?xml version="1.0" standalone="no"?>
<!DOCTYPE svg PUBLIC "-//W3C//DTD SVG 20010904//EN"
 "http://www.w3.org/TR/2001/REC-SVG-20010904/DTD/svg10.dtd">
<svg version="1.0" xmlns="http://www.w3.org/2000/svg"
 width="1080.000000pt" height="1080.000000pt" viewBox="0 0 1080.000000 1080.000000"
 preserveAspectRatio="xMidYMid meet">
<metadata>
Created by potrace 1.16, written by Peter Selinger 2001-2019
</metadata>
<g transform="translate(0.000000,1080.000000) scale(0.100000,-0.100000)"
fill="#000000" stroke="none">
<path d="M5280 7403 c-125 -21 -266 -81 -377 -160 -111 -78 -238 -243 -288
-373 -33 -87 -65 -238 -65 -311 0 -54 -1 -57 -27 -62 -41 -8 -93 -46 -130 -95
-32 -43 -33 -46 -33 -143 0 -116 9 -138 74 -196 57 -50 101 -63 212 -63 l90 0
69 -71 c163 -164 347 -245 585 -256 262 -12 482 77 665 269 44 45 98 115 121
153 44 75 69 133 62 140 -2 2 -40 -10 -84 -28 -76 -31 -84 -32 -219 -31 -114
0 -151 4 -200 20 -33 12 -59 25 -58 30 1 5 13 35 25 66 l23 58 208 0 c263 0
297 12 352 121 16 30 34 50 54 59 86 35 134 160 100 261 -15 43 -64 97 -105
115 -25 11 -34 22 -43 60 -28 110 -105 205 -209 256 -41 20 -62 23 -157 23
-100 0 -115 -2 -160 -26 -106 -57 -186 -158 -202 -255 l-6 -34 -106 0 c-58 0
-123 -4 -143 -9 -36 -8 -38 -7 -38 15 0 41 49 177 86 241 39 66 95 130 158
180 21 17 35 36 32 42 -7 11 -209 14 -266 4z m758 -285 c91 -43 152 -139 152
-240 l0 -58 31 0 c43 0 94 -26 108 -56 31 -68 -8 -135 -87 -149 -36 -6 -42
-10 -42 -31 0 -47 -30 -102 -63 -116 -45 -19 -459 -19 -504 0 -33 14 -63 69
-63 116 0 24 -1 24 -122 28 -139 4 -169 16 -188 73 -9 26 -8 41 4 70 24 56 58
65 240 65 l154 0 4 63 c12 198 203 317 376 235z m-934 -383 c24 -10 37 -23 41
-40 3 -14 7 -36 10 -50 7 -34 72 -105 112 -122 19 -7 69 -13 117 -13 l84 0 22
-45 c21 -43 74 -95 98 -95 40 0 0 -85 -61 -127 -38 -27 -46 -28 -176 -31
l-136 -3 -23 -34 c-44 -68 -56 -70 -357 -70 -264 0 -271 1 -307 23 -48 30 -83
99 -74 147 8 43 50 94 93 111 18 8 67 14 113 14 l80 0 0 68 c0 120 72 230 175
266 53 19 144 20 189 1z"/>
<path d="M4529 5281 c-70 -70 -4 -174 98 -155 53 10 73 35 73 93 0 42 -4 53
-26 70 -41 33 -108 29 -145 -8z"/>
<path d="M5297 5274 c-4 -4 -7 -157 -7 -341 l0 -333 95 0 95 0 0 153 0 153 30
18 c54 32 60 16 60 -165 l0 -159 95 0 95 0 0 178 c0 195 -8 238 -49 284 -25
28 -36 32 -94 36 -47 3 -75 0 -98 -12 -18 -9 -33 -16 -35 -16 -2 0 -5 46 -6
103 l-3 102 -85 3 c-47 1 -89 0 -93 -4z"/>
<path d="M6220 4990 c0 -307 3 -334 48 -373 29 -26 92 -38 147 -28 25 5 47 10
49 12 2 2 -1 34 -7 72 -8 55 -14 67 -29 67 -10 0 -19 1 -20 3 -1 1 -5 121 -8
267 l-5 265 -87 3 -88 3 0 -291z"/>
<path d="M3890 4915 l0 -315 91 0 91 0 -4 158 -4 157 78 -157 77 -158 96 0 95
0 0 315 0 315 -91 0 -92 0 6 -159 5 -159 -79 159 -79 159 -95 0 -95 0 0 -315z"/>
<path d="M5886 5193 c-2 -10 -8 -37 -11 -60 -6 -41 -8 -43 -41 -43 l-34 0 0
-75 0 -75 29 0 29 0 4 -117 c5 -172 36 -222 147 -237 41 -5 147 7 158 18 2 2
-2 33 -8 70 l-12 66 -37 0 c-53 0 -60 12 -60 112 l0 88 50 0 50 0 0 75 0 75
-50 0 -50 0 0 60 0 60 -79 0 c-67 0 -80 -3 -85 -17z"/>
<path d="M4888 5091 c-41 -13 -87 -49 -102 -79 -31 -63 -26 -155 12 -195 20
-22 20 -22 1 -46 -24 -30 -26 -112 -3 -132 14 -11 14 -13 0 -21 -29 -16 -48
-67 -41 -109 16 -92 146 -131 319 -94 38 8 85 25 103 37 65 43 91 134 58 198
-23 45 -67 62 -170 67 -49 2 -100 6 -112 9 -44 9 -23 19 41 20 117 3 176 51
184 149 4 53 6 55 33 55 l29 0 0 70 0 70 -58 0 c-33 0 -106 2 -163 5 -57 3
-116 1 -131 -4z"/>
<path d="M4510 4845 l0 -245 95 0 95 0 0 245 0 245 -95 0 -95 0 0 -245z"/>
<path d="M6450 5083 c0 -5 40 -111 90 -236 77 -197 88 -230 77 -248 -14 -23
-47 -34 -75 -25 -17 6 -21 -3 -35 -66 -12 -55 -13 -74 -4 -80 25 -16 130 -8
171 12 68 33 99 92 197 377 49 142 89 262 89 266 0 4 -41 6 -92 5 l-92 -3 -30
-122 c-27 -112 -45 -152 -47 -105 0 9 -15 64 -33 122 l-34 105 -91 3 c-50 1
-91 -1 -91 -5z"/>
</g>
</svg>
